<svg width="32" height="32" viewBox="0 0 32 32" fill="none" xmlns="http://www.w3.org/2000/svg">
<path fill-rule="evenodd" clip-rule="evenodd" d="M9.29208 3.29202C9.38497 3.19889 9.49532 3.12501 9.61681 3.07459C9.7383 3.02418 9.86854 2.99823 10.0001 2.99823C10.1316 2.99823 10.2619 3.02418 10.3833 3.07459C10.5048 3.12501 10.6152 3.19889 10.7081 3.29202L22.7081 15.292C22.8012 15.3849 22.8751 15.4953 22.9255 15.6168C22.9759 15.7382 23.0019 15.8685 23.0019 16C23.0019 16.1316 22.9759 16.2618 22.9255 16.3833C22.8751 16.5048 22.8012 16.6151 22.7081 16.708L10.7081 28.708C10.5203 28.8958 10.2656 29.0013 10.0001 29.0013C9.73453 29.0013 9.47985 28.8958 9.29208 28.708C9.1043 28.5202 8.99881 28.2656 8.99881 28C8.99881 27.7345 9.1043 27.4798 9.29208 27.292L20.5861 16L9.29208 4.70802C9.19895 4.61513 9.12507 4.50478 9.07465 4.38329C9.02424 4.26179 8.99829 4.13155 8.99829 4.00002C8.99829 3.86848 9.02424 3.73824 9.07465 3.61675C9.12507 3.49526 9.19895 3.38491 9.29208 3.29202Z" fill="url(#paint0_linear_132_441)"/>
<defs>
<linearGradient id="paint0_linear_132_441" x1="16.0001" y1="2.99823" x2="16.0001" y2="29.0013" gradientUnits="userSpaceOnUse">
<stop stop-color="#9B51E0"/>
<stop offset="1" stop-color="#720ECF"/>
</linearGradient>
</defs>
</svg>
