<svg width="32" height="32" viewBox="0 0 32 32" fill="none" xmlns="http://www.w3.org/2000/svg">
<g clip-path="url(#clip0_111_79)">
<path d="M23.3333 6C20.7333 6 17.9333 6.53333 15.9999 8C14.0666 6.53333 11.2666 6 8.66659 6C6.73325 6 4.67992 6.29333 2.95992 7.05333C1.98659 7.49333 1.33325 8.44 1.33325 9.52V24.56C1.33325 26.2933 2.95992 27.5733 4.63992 27.1467C5.94659 26.8133 7.33325 26.6667 8.66659 26.6667C10.7466 26.6667 12.9599 27.0133 14.7466 27.8933C15.5466 28.2933 16.4533 28.2933 17.2399 27.8933C19.0266 27 21.2399 26.6667 23.3199 26.6667C24.6533 26.6667 26.0399 26.8133 27.3466 27.1467C29.0266 27.5867 30.6533 26.3067 30.6533 24.56V9.52C30.6533 8.44 29.9999 7.49333 29.0266 7.05333C27.3199 6.29333 25.2666 6 23.3333 6ZM27.9999 22.9733C27.9999 23.8133 27.2266 24.4267 26.3999 24.28C25.3999 24.0933 24.3599 24.0133 23.3333 24.0133C21.0666 24.0133 17.7999 24.88 15.9999 26.0133V10.6667C17.7999 9.53333 21.0666 8.66667 23.3333 8.66667C24.5599 8.66667 25.7733 8.78667 26.9333 9.04C27.5466 9.17333 27.9999 9.72 27.9999 10.3467V22.9733Z" fill="url(#paint0_linear_111_79)"/>
<path d="M18.6399 14.68C18.2133 14.68 17.8266 14.4133 17.6933 13.9866C17.5199 13.4666 17.8133 12.8933 18.3333 12.7333C20.3866 12.0666 23.0399 11.8533 25.4799 12.1333C26.0266 12.2 26.4266 12.6933 26.3599 13.24C26.2933 13.7866 25.7999 14.1866 25.2533 14.12C23.0933 13.8666 20.7333 14.0666 18.9466 14.64C18.8399 14.6533 18.7333 14.68 18.6399 14.68Z" fill="url(#paint1_linear_111_79)"/>
<path d="M18.6399 18.2267C18.2133 18.2267 17.8266 17.96 17.6933 17.5333C17.5199 17.0133 17.8133 16.44 18.3333 16.28C20.3733 15.6133 23.0399 15.4 25.4799 15.68C26.0266 15.7467 26.4266 16.24 26.3599 16.7867C26.2933 17.3333 25.7999 17.7333 25.2533 17.6667C23.0933 17.4133 20.7333 17.6133 18.9466 18.1867C18.8399 18.2133 18.7333 18.2267 18.6399 18.2267Z" fill="url(#paint2_linear_111_79)"/>
<path d="M18.6399 21.7734C18.2133 21.7734 17.8266 21.5067 17.6933 21.08C17.5199 20.56 17.8133 19.9867 18.3333 19.8267C20.3733 19.16 23.0399 18.9467 25.4799 19.2267C26.0266 19.2934 26.4266 19.7867 26.3599 20.3334C26.2933 20.88 25.7999 21.2667 25.2533 21.2134C23.0933 20.96 20.7333 21.16 18.9466 21.7334C18.8399 21.76 18.7333 21.7734 18.6399 21.7734Z" fill="url(#paint3_linear_111_79)"/>
</g>
<defs>
<linearGradient id="paint0_linear_111_79" x1="15.9933" y1="6" x2="15.9933" y2="28.1933" gradientUnits="userSpaceOnUse">
<stop stop-color="#9B51E0"/>
<stop offset="1" stop-color="#720ECF"/>
</linearGradient>
<linearGradient id="paint1_linear_111_79" x1="22.0052" y1="12.0132" x2="22.0052" y2="14.68" gradientUnits="userSpaceOnUse">
<stop stop-color="#9B51E0"/>
<stop offset="1" stop-color="#720ECF"/>
</linearGradient>
<linearGradient id="paint2_linear_111_79" x1="22.0052" y1="15.5599" x2="22.0052" y2="18.2267" gradientUnits="userSpaceOnUse">
<stop stop-color="#9B51E0"/>
<stop offset="1" stop-color="#720ECF"/>
</linearGradient>
<linearGradient id="paint3_linear_111_79" x1="22.0052" y1="19.1066" x2="22.0052" y2="21.7734" gradientUnits="userSpaceOnUse">
<stop stop-color="#9B51E0"/>
<stop offset="1" stop-color="#720ECF"/>
</linearGradient>
<clipPath id="clip0_111_79">
<rect width="32" height="32" fill="white"/>
</clipPath>
</defs>
</svg>
