<svg width="32" height="32" viewBox="0 0 32 32" fill="none" xmlns="http://www.w3.org/2000/svg">
<g clip-path="url(#clip0_132_442)">
<path d="M16 32C16 32 28 20.628 28 12C28 8.8174 26.7357 5.76515 24.4853 3.51472C22.2348 1.26428 19.1826 0 16 0C12.8174 0 9.76515 1.26428 7.51472 3.51472C5.26428 5.76515 4 8.8174 4 12C4 20.628 16 32 16 32ZM16 18C14.4087 18 12.8826 17.3679 11.7574 16.2426C10.6321 15.1174 10 13.5913 10 12C10 10.4087 10.6321 8.88258 11.7574 7.75736C12.8826 6.63214 14.4087 6 16 6C17.5913 6 19.1174 6.63214 20.2426 7.75736C21.3679 8.88258 22 10.4087 22 12C22 13.5913 21.3679 15.1174 20.2426 16.2426C19.1174 17.3679 17.5913 18 16 18Z" fill="url(#paint0_linear_132_442)"/>
</g>
<defs>
<linearGradient id="paint0_linear_132_442" x1="16" y1="0" x2="16" y2="32" gradientUnits="userSpaceOnUse">
<stop stop-color="#9B51E0"/>
<stop offset="1" stop-color="#720ECF"/>
</linearGradient>
<clipPath id="clip0_132_442">
<rect width="32" height="32" fill="white"/>
</clipPath>
</defs>
</svg>
