<svg width="32" height="32" viewBox="0 0 32 32" fill="none" xmlns="http://www.w3.org/2000/svg">
<path d="M16.0001 22.6666C7.40008 22.6666 0.666748 19.7333 0.666748 16C0.666748 12.2666 7.40008 9.33331 16.0001 9.33331C24.6001 9.33331 31.3334 12.2666 31.3334 16C31.3334 19.7333 24.6001 22.6666 16.0001 22.6666ZM16.0001 10.6666C7.60008 10.6666 2.00008 13.4 2.00008 16C2.00008 18.6 7.60008 21.3333 16.0001 21.3333C24.4001 21.3333 30.0001 18.6 30.0001 16C30.0001 13.4 24.4001 10.6666 16.0001 10.6666Z" fill="url(#paint0_linear_108_29)"/>
<path d="M10.0666 29.7333C9.39989 29.7333 8.86656 29.6 8.33322 29.2667C5.06656 27.4 5.93322 20.1333 10.1999 12.6667C12.1999 9.2 14.6666 6.26666 17.0666 4.39999C19.6666 2.39999 21.9999 1.79999 23.5999 2.73333C25.2666 3.66666 25.8666 5.99999 25.4666 9.26666C25.0666 12.3333 23.7332 15.9333 21.7332 19.4C19.7332 22.8667 17.2666 25.8 14.8666 27.6667C13.1332 29 11.4666 29.7333 10.0666 29.7333ZM21.9332 3.6C20.8666 3.6 19.4666 4.2 17.9332 5.4C15.6666 7.2 13.3332 10 11.3999 13.3333C7.19989 20.6 6.79989 26.8667 8.99989 28.1333C10.1332 28.8 11.9999 28.2 14.0666 26.6C16.3332 24.8 18.6666 22 20.5999 18.6667C22.5332 15.3333 23.7999 11.9333 24.1999 9.06666C24.5332 6.4 24.1332 4.53333 22.9999 3.86666C22.6666 3.73333 22.3332 3.6 21.9332 3.6Z" fill="url(#paint1_linear_108_29)"/>
<path d="M22 29.7333C18.6666 29.7333 13.8666 25.6667 10.2666 19.3333C5.93329 11.8667 5.06662 4.59999 8.33329 2.73332C11.6 0.866653 17.4666 5.19999 21.8 12.6667C23.8 16.1333 25.1333 19.7333 25.5333 22.8C26 26.0667 25.3333 28.3333 23.6666 29.3333C23.1333 29.6 22.6 29.7333 22 29.7333ZM8.99996 3.86665C6.79996 5.13332 7.19996 11.4 11.4 18.6667C15.6 25.9333 20.8 29.4 23 28.1333C24.1333 27.4667 24.5333 25.6 24.2 22.9333C23.8 20.0667 22.5333 16.6667 20.6 13.3333C16.4 6.06665 11.2 2.59999 8.99996 3.86665Z" fill="url(#paint2_linear_108_29)"/>
<path d="M15.9999 18.6666C17.4727 18.6666 18.6666 17.4727 18.6666 16C18.6666 14.5272 17.4727 13.3333 15.9999 13.3333C14.5272 13.3333 13.3333 14.5272 13.3333 16C13.3333 17.4727 14.5272 18.6666 15.9999 18.6666Z" fill="url(#paint3_linear_108_29)"/>
<defs>
<linearGradient id="paint0_linear_108_29" x1="16.0001" y1="9.33331" x2="16.0001" y2="22.6666" gradientUnits="userSpaceOnUse">
<stop stop-color="#9B51E0"/>
<stop offset="1" stop-color="#720ECF"/>
</linearGradient>
<linearGradient id="paint1_linear_108_29" x1="15.9676" y1="2.30341" x2="15.9676" y2="29.7333" gradientUnits="userSpaceOnUse">
<stop stop-color="#9B51E0"/>
<stop offset="1" stop-color="#720ECF"/>
</linearGradient>
<linearGradient id="paint2_linear_108_29" x1="16.0162" y1="2.30072" x2="16.0162" y2="29.7333" gradientUnits="userSpaceOnUse">
<stop stop-color="#9B51E0"/>
<stop offset="1" stop-color="#720ECF"/>
</linearGradient>
<linearGradient id="paint3_linear_108_29" x1="15.9999" y1="13.3333" x2="15.9999" y2="18.6666" gradientUnits="userSpaceOnUse">
<stop stop-color="#9B51E0"/>
<stop offset="1" stop-color="#720ECF"/>
</linearGradient>
</defs>
</svg>
