<svg width="32" height="32" viewBox="0 0 32 32" fill="none" xmlns="http://www.w3.org/2000/svg">
<path d="M26 4H6C4.89543 4 4 4.89543 4 6V26C4 27.1046 4.89543 28 6 28H26C27.1046 28 28 27.1046 28 26V6C28 4.89543 27.1046 4 26 4Z" fill="url(#paint0_linear_108_28)"/>
<path d="M18.3266 14.6667H9.48462V16.8427H12.656V26.6667H15.1686V16.8427H18.3266V14.6667Z" fill="#121212"/>
<path d="M26.1294 17.3893C26.1294 17.3893 24.9381 16.5947 23.5914 16.5947C22.2447 16.5947 21.7601 17.2347 21.7601 17.9187C21.7601 19.684 26.6807 19.5073 26.6807 23.06C26.6807 28.5327 19.1781 26.1053 19.1781 26.1053V23.48C19.1781 23.48 20.6127 24.5613 22.3334 24.5613C24.0541 24.5613 23.9887 23.436 23.9887 23.2813C23.9887 21.6487 19.1121 21.6487 19.1121 18.0293C19.1121 13.1087 26.2174 15.05 26.2174 15.05L26.1294 17.3893Z" fill="#121212"/>
<defs>
<linearGradient id="paint0_linear_108_28" x1="16" y1="4" x2="16" y2="28" gradientUnits="userSpaceOnUse">
<stop stop-color="#9B51E0"/>
<stop offset="1" stop-color="#720ECF"/>
</linearGradient>
</defs>
</svg>
